<svg xmlns="http://www.w3.org/2000/svg" viewBox="0 0 34 28" role="img" aria-label="Golden laurel branch">
  <defs>
    <linearGradient id="gold" x1="0" y1="0" x2="1" y2="1">
      <stop offset="0" stop-color="#FFE08A"/>
      <stop offset="0.55" stop-color="#D9A62E"/>
      <stop offset="1" stop-color="#A87413"/>
    </linearGradient>
  </defs>
  <path d="M31 25C18 24 8 16 5 3" fill="none" stroke="#B98419" stroke-linecap="round" stroke-width="1.6"/>
  <g fill="url(#gold)" stroke="#A87413" stroke-width=".45">
    <ellipse cx="7.2" cy="6" rx="2" ry="4" transform="rotate(-34 7.2 6)"/>
    <ellipse cx="8.2" cy="10.5" rx="2" ry="4" transform="rotate(22 8.2 10.5)"/>
    <ellipse cx="11" cy="13.8" rx="2" ry="4" transform="rotate(-42 11 13.8)"/>
    <ellipse cx="13.7" cy="17.2" rx="2" ry="4" transform="rotate(32 13.7 17.2)"/>
    <ellipse cx="17.5" cy="19.3" rx="2" ry="4" transform="rotate(-51 17.5 19.3)"/>
    <ellipse cx="21.3" cy="22" rx="2" ry="4" transform="rotate(43 21.3 22)"/>
    <ellipse cx="25.8" cy="22.7" rx="2" ry="4" transform="rotate(-60 25.8 22.7)"/>
  </g>
</svg>
